<svg width="122" height="28" viewBox="0 0 122 28" fill="none" xmlns="http://www.w3.org/2000/svg">
<g clip-path="url(#clip0_4994_253)">
<path d="M122 0H0V28H122V0Z" fill="black"/>
<path d="M42.5869 15.2148C42.5869 15.931 42.2826 16.5137 41.6738 16.9629C41.0684 17.4089 40.2448 17.6318 39.2031 17.6318C38.6009 17.6318 38.0752 17.5798 37.626 17.4756C37.18 17.3682 36.7617 17.2331 36.3711 17.0703V15.3271H36.5762C36.9635 15.6364 37.3965 15.874 37.875 16.04C38.3568 16.2061 38.819 16.2891 39.2617 16.2891C39.3757 16.2891 39.5254 16.2793 39.7109 16.2598C39.8965 16.2402 40.0479 16.2077 40.165 16.1621C40.3083 16.1035 40.4255 16.0303 40.5166 15.9424C40.611 15.8545 40.6582 15.7243 40.6582 15.5518C40.6582 15.3923 40.5898 15.2555 40.4531 15.1416C40.3197 15.0244 40.1227 14.9349 39.8623 14.873C39.5889 14.8079 39.2992 14.7477 38.9932 14.6924C38.6904 14.6338 38.4056 14.5605 38.1387 14.4727C37.5267 14.2741 37.0856 14.0055 36.8154 13.667C36.5485 13.3252 36.415 12.902 36.415 12.3975C36.415 11.7204 36.7178 11.1686 37.3232 10.7422C37.932 10.3125 38.7132 10.0977 39.667 10.0977C40.1455 10.0977 40.6175 10.1449 41.083 10.2393C41.5518 10.3304 41.957 10.446 42.2988 10.5859V12.2607H42.0986C41.8057 12.0264 41.446 11.8311 41.0195 11.6748C40.5964 11.5153 40.1634 11.4355 39.7207 11.4355C39.5645 11.4355 39.4082 11.4469 39.252 11.4697C39.099 11.4893 38.9508 11.5283 38.8076 11.5869C38.6807 11.6357 38.5716 11.7106 38.4805 11.8115C38.3893 11.9092 38.3438 12.0215 38.3438 12.1484C38.3438 12.3405 38.417 12.4886 38.5635 12.5928C38.71 12.6937 38.9867 12.7865 39.3936 12.8711C39.6605 12.9264 39.916 12.9801 40.1602 13.0322C40.4076 13.0843 40.6729 13.1559 40.9561 13.2471C41.5127 13.4294 41.9229 13.6784 42.1865 13.9941C42.4535 14.3066 42.5869 14.7135 42.5869 15.2148ZM47.8066 17.5H43.5488V16.2109H44.7402V11.5186H43.5488V10.2295H47.8066V11.5186H46.6152V16.2109H47.8066V17.5ZM54.5791 17.5H49.335V10.2295H51.21V16.0938H54.5791V17.5ZM62.3037 10.2295L59.6523 17.5H57.5527L54.9014 10.2295H56.8691L58.627 15.3369L60.3848 10.2295H62.3037ZM68.6074 17.5H63.3486V10.2295H68.6074V11.6357H65.2139V12.8906H68.3633V14.2969H65.2139V16.0938H68.6074V17.5ZM74.2617 12.4561C74.2617 12.2738 74.2243 12.1175 74.1494 11.9873C74.0745 11.8571 73.946 11.7546 73.7637 11.6797C73.6367 11.6276 73.4886 11.5967 73.3193 11.5869C73.1501 11.5739 72.9531 11.5674 72.7285 11.5674H72.0498V13.5254H72.626C72.9255 13.5254 73.1761 13.5107 73.3779 13.4814C73.5798 13.4521 73.749 13.3854 73.8857 13.2812C74.016 13.1803 74.1104 13.0697 74.1689 12.9492C74.2308 12.8255 74.2617 12.6611 74.2617 12.4561ZM77.1865 17.5H74.8965L72.9141 14.834H72.0498V17.5H70.1846V10.2295H73.3291C73.7588 10.2295 74.1283 10.2539 74.4375 10.3027C74.7467 10.3516 75.0365 10.4574 75.3066 10.6201C75.5801 10.7829 75.7965 10.9945 75.9561 11.2549C76.1188 11.512 76.2002 11.8359 76.2002 12.2266C76.2002 12.7637 76.0749 13.2015 75.8242 13.54C75.5768 13.8786 75.222 14.1602 74.7598 14.3848L77.1865 17.5ZM84.2275 15.2734C84.2275 15.625 84.1559 15.9391 84.0127 16.2158C83.8727 16.4925 83.679 16.722 83.4316 16.9043C83.1452 17.1191 82.8294 17.2721 82.4844 17.3633C82.1426 17.4544 81.708 17.5 81.1807 17.5H78.0068V10.2295H80.8291C81.415 10.2295 81.8431 10.249 82.1133 10.2881C82.3867 10.3271 82.6569 10.4134 82.9238 10.5469C83.2005 10.6868 83.4056 10.8757 83.5391 11.1133C83.6758 11.3477 83.7441 11.6162 83.7441 11.9189C83.7441 12.2705 83.6514 12.5814 83.4658 12.8516C83.2803 13.1185 83.0182 13.3268 82.6797 13.4766V13.5156C83.1549 13.61 83.5309 13.8053 83.8076 14.1016C84.0876 14.3978 84.2275 14.7884 84.2275 15.2734ZM81.8252 12.2852C81.8252 12.1647 81.7943 12.0443 81.7324 11.9238C81.6738 11.8034 81.568 11.7139 81.415 11.6553C81.2783 11.6032 81.1074 11.5755 80.9023 11.5723C80.7005 11.5658 80.4157 11.5625 80.0479 11.5625H79.8721V13.1006H80.165C80.4613 13.1006 80.7135 13.0957 80.9219 13.0859C81.1302 13.0762 81.2946 13.0436 81.415 12.9883C81.5843 12.9134 81.695 12.8174 81.7471 12.7002C81.7992 12.5798 81.8252 12.4414 81.8252 12.2852ZM82.2842 15.2441C82.2842 15.013 82.2386 14.8356 82.1475 14.7119C82.0596 14.585 81.9082 14.4906 81.6934 14.4287C81.5469 14.3864 81.3451 14.3636 81.0879 14.3604C80.8307 14.3571 80.5622 14.3555 80.2822 14.3555H79.8721V16.167H80.0088C80.5361 16.167 80.9137 16.1654 81.1416 16.1621C81.3695 16.1589 81.5794 16.1165 81.7715 16.0352C81.9668 15.9538 82.1003 15.8464 82.1719 15.7129C82.2467 15.5762 82.2842 15.4199 82.2842 15.2441ZM92.3428 17.5H90.4043L89.9014 16.0303H87.2061L86.7031 17.5H84.8135L87.499 10.2295H89.6572L92.3428 17.5ZM89.4473 14.6973L88.5537 12.0898L87.6602 14.6973H89.4473ZM96.6738 17.6416C96.1335 17.6416 95.6338 17.5618 95.1748 17.4023C94.7191 17.2428 94.3268 17.0052 93.998 16.6895C93.6693 16.3737 93.4137 15.9798 93.2314 15.5078C93.0524 15.0358 92.9629 14.4906 92.9629 13.8721C92.9629 13.2959 93.0492 12.7734 93.2217 12.3047C93.3942 11.8359 93.6449 11.4339 93.9736 11.0986C94.2894 10.7764 94.68 10.5273 95.1455 10.3516C95.6143 10.1758 96.1253 10.0879 96.6787 10.0879C96.9847 10.0879 97.2598 10.1058 97.5039 10.1416C97.7513 10.1742 97.9792 10.2181 98.1875 10.2734C98.4056 10.3353 98.6025 10.4053 98.7783 10.4834C98.9574 10.5583 99.1136 10.6283 99.2471 10.6934V12.4561H99.0322C98.9411 12.3779 98.8255 12.2852 98.6855 12.1777C98.5488 12.0703 98.3926 11.9645 98.2168 11.8604C98.0378 11.7562 97.8441 11.6683 97.6357 11.5967C97.4274 11.5251 97.2044 11.4893 96.9668 11.4893C96.7031 11.4893 96.4525 11.5316 96.2148 11.6162C95.9772 11.6976 95.7575 11.8343 95.5557 12.0264C95.3636 12.2119 95.2074 12.4577 95.0869 12.7637C94.9697 13.0697 94.9111 13.4408 94.9111 13.877C94.9111 14.3327 94.9746 14.7135 95.1016 15.0195C95.2318 15.3255 95.3945 15.5664 95.5898 15.7422C95.7884 15.9212 96.0098 16.0498 96.2539 16.1279C96.498 16.2028 96.7389 16.2402 96.9766 16.2402C97.2044 16.2402 97.429 16.2061 97.6504 16.1377C97.875 16.0693 98.0817 15.9766 98.2705 15.8594C98.43 15.765 98.5781 15.6641 98.7148 15.5566C98.8516 15.4492 98.9639 15.3564 99.0518 15.2783H99.2471V17.0166C99.0648 17.098 98.8906 17.1745 98.7246 17.2461C98.5586 17.3177 98.3844 17.3796 98.2021 17.4316C97.9645 17.5 97.7415 17.5521 97.5332 17.5879C97.3249 17.6237 97.0384 17.6416 96.6738 17.6416ZM107.411 17.5H105.111L102.938 14.5898L102.499 15.1221V17.5H100.624V10.2295H102.499V13.5205L105.097 10.2295H107.27L104.428 13.5938L107.411 17.5Z" fill="white"/>
<path d="M11 8.60383V12.6343L22 19.3959V15.3656L11 8.60383Z" fill="white"/>
<path d="M22 19.3959L16.1083 23H11.0099V19.396L22 19.3959Z" fill="white"/>
<path d="M11 8.60383L16.872 5H21.9901V8.60383L11 8.60383Z" fill="white"/>
</g>
<defs>
<clipPath id="clip0_4994_253">
<rect width="122" height="28" fill="white"/>
</clipPath>
</defs>
</svg>
