<svg width="122" height="28" viewBox="0 0 122 28" fill="none" xmlns="http://www.w3.org/2000/svg">
<title>SilverBack</title
<g clip-path="url(#clip0_4994_253)">
<path d="M122 0H0V28H122V0Z" fill="black"/>
<path d="M49.5869 15.2148C49.5869 15.931 49.2826 16.5137 48.6738 16.9629C48.0684 17.4089 47.2448 17.6318 46.2031 17.6318C45.6009 17.6318 45.0752 17.5798 44.626 17.4756C44.18 17.3682 43.7617 17.2331 43.3711 17.0703V15.3271H43.5762C43.9635 15.6364 44.3965 15.874 44.875 16.04C45.3568 16.2061 45.819 16.2891 46.2617 16.2891C46.3757 16.2891 46.5254 16.2793 46.7109 16.2598C46.8965 16.2402 47.0479 16.2077 47.165 16.1621C47.3083 16.1035 47.4255 16.0303 47.5166 15.9424C47.611 15.8545 47.6582 15.7243 47.6582 15.5518C47.6582 15.3923 47.5898 15.2555 47.4531 15.1416C47.3197 15.0244 47.1227 14.9349 46.8623 14.873C46.5889 14.8079 46.2992 14.7477 45.9932 14.6924C45.6904 14.6338 45.4056 14.5605 45.1387 14.4727C44.5267 14.2741 44.0856 14.0055 43.8154 13.667C43.5485 13.3252 43.415 12.902 43.415 12.3975C43.415 11.7204 43.7178 11.1686 44.3232 10.7422C44.932 10.3125 45.7132 10.0977 46.667 10.0977C47.1455 10.0977 47.6175 10.1449 48.083 10.2393C48.5518 10.3304 48.957 10.446 49.2988 10.5859V12.2607H49.0986C48.8057 12.0264 48.446 11.8311 48.0195 11.6748C47.5964 11.5153 47.1634 11.4355 46.7207 11.4355C46.5645 11.4355 46.4082 11.4469 46.252 11.4697C46.099 11.4893 45.9508 11.5283 45.8076 11.5869C45.6807 11.6357 45.5716 11.7106 45.4805 11.8115C45.3893 11.9092 45.3438 12.0215 45.3438 12.1484C45.3438 12.3405 45.417 12.4886 45.5635 12.5928C45.71 12.6937 45.9867 12.7865 46.3936 12.8711C46.6605 12.9264 46.916 12.9801 47.1602 13.0322C47.4076 13.0843 47.6729 13.1559 47.9561 13.2471C48.5127 13.4294 48.9229 13.6784 49.1865 13.9941C49.4535 14.3066 49.5869 14.7135 49.5869 15.2148ZM54.8066 17.5H50.5488V16.2109H51.7402V11.5186H50.5488V10.2295H54.8066V11.5186H53.6152V16.2109H54.8066V17.5ZM61.5791 17.5H56.335V10.2295H58.21V16.0938H61.5791V17.5ZM69.3037 10.2295L66.6523 17.5H64.5527L61.9014 10.2295H63.8691L65.627 15.3369L67.3848 10.2295H69.3037ZM75.6074 17.5H70.3486V10.2295H75.6074V11.6357H72.2139V12.8906H75.3633V14.2969H72.2139V16.0938H75.6074V17.5ZM81.2617 12.4561C81.2617 12.2738 81.2243 12.1175 81.1494 11.9873C81.0745 11.8571 80.946 11.7546 80.7637 11.6797C80.6367 11.6276 80.4886 11.5967 80.3193 11.5869C80.1501 11.5739 79.9531 11.5674 79.7285 11.5674H79.0498V13.5254H79.626C79.9255 13.5254 80.1761 13.5107 80.3779 13.4814C80.5798 13.4521 80.749 13.3854 80.8857 13.2812C81.016 13.1803 81.1104 13.0697 81.1689 12.9492C81.2308 12.8255 81.2617 12.6611 81.2617 12.4561ZM84.1865 17.5H81.8965L79.9141 14.834H79.0498V17.5H77.1846V10.2295H80.3291C80.7588 10.2295 81.1283 10.2539 81.4375 10.3027C81.7467 10.3516 82.0365 10.4574 82.3066 10.6201C82.5801 10.7829 82.7965 10.9945 82.9561 11.2549C83.1188 11.512 83.2002 11.8359 83.2002 12.2266C83.2002 12.7637 83.0749 13.2015 82.8242 13.54C82.5768 13.8786 82.222 14.1602 81.7598 14.3848L84.1865 17.5ZM91.2275 15.2734C91.2275 15.625 91.1559 15.9391 91.0127 16.2158C90.8727 16.4925 90.679 16.722 90.4316 16.9043C90.1452 17.1191 89.8294 17.2721 89.4844 17.3633C89.1426 17.4544 88.708 17.5 88.1807 17.5H85.0068V10.2295H87.8291C88.415 10.2295 88.8431 10.249 89.1133 10.2881C89.3867 10.3271 89.6569 10.4134 89.9238 10.5469C90.2005 10.6868 90.4056 10.8757 90.5391 11.1133C90.6758 11.3477 90.7441 11.6162 90.7441 11.9189C90.7441 12.2705 90.6514 12.5814 90.4658 12.8516C90.2803 13.1185 90.0182 13.3268 89.6797 13.4766V13.5156C90.1549 13.61 90.5309 13.8053 90.8076 14.1016C91.0876 14.3978 91.2275 14.7884 91.2275 15.2734ZM88.8252 12.2852C88.8252 12.1647 88.7943 12.0443 88.7324 11.9238C88.6738 11.8034 88.568 11.7139 88.415 11.6553C88.2783 11.6032 88.1074 11.5755 87.9023 11.5723C87.7005 11.5658 87.4157 11.5625 87.0479 11.5625H86.8721V13.1006H87.165C87.4613 13.1006 87.7135 13.0957 87.9219 13.0859C88.1302 13.0762 88.2946 13.0436 88.415 12.9883C88.5843 12.9134 88.695 12.8174 88.7471 12.7002C88.7992 12.5798 88.8252 12.4414 88.8252 12.2852ZM89.2842 15.2441C89.2842 15.013 89.2386 14.8356 89.1475 14.7119C89.0596 14.585 88.9082 14.4906 88.6934 14.4287C88.5469 14.3864 88.3451 14.3636 88.0879 14.3604C87.8307 14.3571 87.5622 14.3555 87.2822 14.3555H86.8721V16.167H87.0088C87.5361 16.167 87.9137 16.1654 88.1416 16.1621C88.3695 16.1589 88.5794 16.1165 88.7715 16.0352C88.9668 15.9538 89.1003 15.8464 89.1719 15.7129C89.2467 15.5762 89.2842 15.4199 89.2842 15.2441ZM99.3428 17.5H97.4043L96.9014 16.0303H94.2061L93.7031 17.5H91.8135L94.499 10.2295H96.6572L99.3428 17.5ZM96.4473 14.6973L95.5537 12.0898L94.6602 14.6973H96.4473ZM103.674 17.6416C103.133 17.6416 102.634 17.5618 102.175 17.4023C101.719 17.2428 101.327 17.0052 100.998 16.6895C100.669 16.3737 100.414 15.9798 100.231 15.5078C100.052 15.0358 99.9629 14.4906 99.9629 13.8721C99.9629 13.2959 100.049 12.7734 100.222 12.3047C100.394 11.8359 100.645 11.4339 100.974 11.0986C101.289 10.7764 101.68 10.5273 102.146 10.3516C102.614 10.1758 103.125 10.0879 103.679 10.0879C103.985 10.0879 104.26 10.1058 104.504 10.1416C104.751 10.1742 104.979 10.2181 105.188 10.2734C105.406 10.3353 105.603 10.4053 105.778 10.4834C105.957 10.5583 106.114 10.6283 106.247 10.6934V12.4561H106.032C105.941 12.3779 105.826 12.2852 105.686 12.1777C105.549 12.0703 105.393 11.9645 105.217 11.8604C105.038 11.7562 104.844 11.6683 104.636 11.5967C104.427 11.5251 104.204 11.4893 103.967 11.4893C103.703 11.4893 103.452 11.5316 103.215 11.6162C102.977 11.6976 102.757 11.8343 102.556 12.0264C102.364 12.2119 102.207 12.4577 102.087 12.7637C101.97 13.0697 101.911 13.4408 101.911 13.877C101.911 14.3327 101.975 14.7135 102.102 15.0195C102.232 15.3255 102.395 15.5664 102.59 15.7422C102.788 15.9212 103.01 16.0498 103.254 16.1279C103.498 16.2028 103.739 16.2402 103.977 16.2402C104.204 16.2402 104.429 16.2061 104.65 16.1377C104.875 16.0693 105.082 15.9766 105.271 15.8594C105.43 15.765 105.578 15.6641 105.715 15.5566C105.852 15.4492 105.964 15.3564 106.052 15.2783H106.247V17.0166C106.065 17.098 105.891 17.1745 105.725 17.2461C105.559 17.3177 105.384 17.3796 105.202 17.4316C104.965 17.5 104.742 17.5521 104.533 17.5879C104.325 17.6237 104.038 17.6416 103.674 17.6416ZM114.411 17.5H112.111L109.938 14.5898L109.499 15.1221V17.5H107.624V10.2295H109.499V13.5205L112.097 10.2295H114.27L111.428 13.5938L114.411 17.5Z" fill="white"/>
<path d="M17 8.60383V12.6343L28 19.3959V15.3656L17 8.60383Z" fill="white"/>
<path d="M28 19.3959L22.1083 23H17.0099V19.396L28 19.3959Z" fill="white"/>
<path d="M17 8.60383L22.872 5H27.9901V8.60383L17 8.60383Z" fill="white"/>
</g>
<defs>
<clipPath id="clip0_4994_253">
<rect width="122" height="28" fill="white"/>
</clipPath>
</defs>
</svg>
