<svg width="122" height="28" viewBox="0 0 122 28" fill="none" xmlns="http://www.w3.org/2000/svg">
<path d="M117 0H0V28H117V0Z" fill="black"/>
<path d="M36.7119 15.2148C36.7119 15.931 36.4076 16.5137 35.7988 16.9629C35.1934 17.4089 34.3698 17.6318 33.3281 17.6318C32.7259 17.6318 32.2002 17.5798 31.751 17.4756C31.305 17.3682 30.8867 17.2331 30.4961 17.0703V15.3271H30.7012C31.0885 15.6364 31.5215 15.874 32 16.04C32.4818 16.2061 32.944 16.2891 33.3867 16.2891C33.5007 16.2891 33.6504 16.2793 33.8359 16.2598C34.0215 16.2402 34.1729 16.2077 34.29 16.1621C34.4333 16.1035 34.5505 16.0303 34.6416 15.9424C34.736 15.8545 34.7832 15.7243 34.7832 15.5518C34.7832 15.3923 34.7148 15.2555 34.5781 15.1416C34.4447 15.0244 34.2477 14.9349 33.9873 14.873C33.7139 14.8079 33.4242 14.7477 33.1182 14.6924C32.8154 14.6338 32.5306 14.5605 32.2637 14.4727C31.6517 14.2741 31.2106 14.0055 30.9404 13.667C30.6735 13.3252 30.54 12.902 30.54 12.3975C30.54 11.7204 30.8428 11.1686 31.4482 10.7422C32.057 10.3125 32.8382 10.0977 33.792 10.0977C34.2705 10.0977 34.7425 10.1449 35.208 10.2393C35.6768 10.3304 36.082 10.446 36.4238 10.5859V12.2607H36.2236C35.9307 12.0264 35.571 11.8311 35.1445 11.6748C34.7214 11.5153 34.2884 11.4355 33.8457 11.4355C33.6895 11.4355 33.5332 11.4469 33.377 11.4697C33.224 11.4893 33.0758 11.5283 32.9326 11.5869C32.8057 11.6357 32.6966 11.7106 32.6055 11.8115C32.5143 11.9092 32.4688 12.0215 32.4688 12.1484C32.4688 12.3405 32.542 12.4886 32.6885 12.5928C32.835 12.6937 33.1117 12.7865 33.5186 12.8711C33.7855 12.9264 34.041 12.9801 34.2852 13.0322C34.5326 13.0843 34.7979 13.1559 35.0811 13.2471C35.6377 13.4294 36.0479 13.6784 36.3115 13.9941C36.5785 14.3066 36.7119 14.7135 36.7119 15.2148ZM42.6816 17.5H38.4238V16.2109H39.6152V11.5186H38.4238V10.2295H42.6816V11.5186H41.4902V16.2109H42.6816V17.5ZM50.2041 17.5H44.96V10.2295H46.835V16.0938H50.2041V17.5ZM58.6787 10.2295L56.0273 17.5H53.9277L51.2764 10.2295H53.2441L55.002 15.3369L56.7598 10.2295H58.6787ZM65.7324 17.5H60.4736V10.2295H65.7324V11.6357H62.3389V12.8906H65.4883V14.2969H62.3389V16.0938H65.7324V17.5ZM72.1367 12.4561C72.1367 12.2738 72.0993 12.1175 72.0244 11.9873C71.9495 11.8571 71.821 11.7546 71.6387 11.6797C71.5117 11.6276 71.3636 11.5967 71.1943 11.5869C71.0251 11.5739 70.8281 11.5674 70.6035 11.5674H69.9248V13.5254H70.501C70.8005 13.5254 71.0511 13.5107 71.2529 13.4814C71.4548 13.4521 71.624 13.3854 71.7607 13.2812C71.891 13.1803 71.9854 13.0697 72.0439 12.9492C72.1058 12.8255 72.1367 12.6611 72.1367 12.4561ZM75.0615 17.5H72.7715L70.7891 14.834H69.9248V17.5H68.0596V10.2295H71.2041C71.6338 10.2295 72.0033 10.2539 72.3125 10.3027C72.6217 10.3516 72.9115 10.4574 73.1816 10.6201C73.4551 10.7829 73.6715 10.9945 73.8311 11.2549C73.9938 11.512 74.0752 11.8359 74.0752 12.2266C74.0752 12.7637 73.9499 13.2015 73.6992 13.54C73.4518 13.8786 73.097 14.1602 72.6348 14.3848L75.0615 17.5ZM82.8525 15.2734C82.8525 15.625 82.7809 15.9391 82.6377 16.2158C82.4977 16.4925 82.304 16.722 82.0566 16.9043C81.7702 17.1191 81.4544 17.2721 81.1094 17.3633C80.7676 17.4544 80.333 17.5 79.8057 17.5H76.6318V10.2295H79.4541C80.04 10.2295 80.4681 10.249 80.7383 10.2881C81.0117 10.3271 81.2819 10.4134 81.5488 10.5469C81.8255 10.6868 82.0306 10.8757 82.1641 11.1133C82.3008 11.3477 82.3691 11.6162 82.3691 11.9189C82.3691 12.2705 82.2764 12.5814 82.0908 12.8516C81.9053 13.1185 81.6432 13.3268 81.3047 13.4766V13.5156C81.7799 13.61 82.1559 13.8053 82.4326 14.1016C82.7126 14.3978 82.8525 14.7884 82.8525 15.2734ZM80.4502 12.2852C80.4502 12.1647 80.4193 12.0443 80.3574 11.9238C80.2988 11.8034 80.193 11.7139 80.04 11.6553C79.9033 11.6032 79.7324 11.5755 79.5273 11.5723C79.3255 11.5658 79.0407 11.5625 78.6729 11.5625H78.4971V13.1006H78.79C79.0863 13.1006 79.3385 13.0957 79.5469 13.0859C79.7552 13.0762 79.9196 13.0436 80.04 12.9883C80.2093 12.9134 80.32 12.8174 80.3721 12.7002C80.4242 12.5798 80.4502 12.4414 80.4502 12.2852ZM80.9092 15.2441C80.9092 15.013 80.8636 14.8356 80.7725 14.7119C80.6846 14.585 80.5332 14.4906 80.3184 14.4287C80.1719 14.3864 79.9701 14.3636 79.7129 14.3604C79.4557 14.3571 79.1872 14.3555 78.9072 14.3555H78.4971V16.167H78.6338C79.1611 16.167 79.5387 16.1654 79.7666 16.1621C79.9945 16.1589 80.2044 16.1165 80.3965 16.0352C80.5918 15.9538 80.7253 15.8464 80.7969 15.7129C80.8717 15.5762 80.9092 15.4199 80.9092 15.2441ZM91.7178 17.5H89.7793L89.2764 16.0303H86.5811L86.0781 17.5H84.1885L86.874 10.2295H89.0322L91.7178 17.5ZM88.8223 14.6973L87.9287 12.0898L87.0352 14.6973H88.8223ZM96.7988 17.6416C96.2585 17.6416 95.7588 17.5618 95.2998 17.4023C94.8441 17.2428 94.4518 17.0052 94.123 16.6895C93.7943 16.3737 93.5387 15.9798 93.3564 15.5078C93.1774 15.0358 93.0879 14.4906 93.0879 13.8721C93.0879 13.2959 93.1742 12.7734 93.3467 12.3047C93.5192 11.8359 93.7699 11.4339 94.0986 11.0986C94.4144 10.7764 94.805 10.5273 95.2705 10.3516C95.7393 10.1758 96.2503 10.0879 96.8037 10.0879C97.1097 10.0879 97.3848 10.1058 97.6289 10.1416C97.8763 10.1742 98.1042 10.2181 98.3125 10.2734C98.5306 10.3353 98.7275 10.4053 98.9033 10.4834C99.0824 10.5583 99.2386 10.6283 99.3721 10.6934V12.4561H99.1572C99.0661 12.3779 98.9505 12.2852 98.8105 12.1777C98.6738 12.0703 98.5176 11.9645 98.3418 11.8604C98.1628 11.7562 97.9691 11.6683 97.7607 11.5967C97.5524 11.5251 97.3294 11.4893 97.0918 11.4893C96.8281 11.4893 96.5775 11.5316 96.3398 11.6162C96.1022 11.6976 95.8825 11.8343 95.6807 12.0264C95.4886 12.2119 95.3324 12.4577 95.2119 12.7637C95.0947 13.0697 95.0361 13.4408 95.0361 13.877C95.0361 14.3327 95.0996 14.7135 95.2266 15.0195C95.3568 15.3255 95.5195 15.5664 95.7148 15.7422C95.9134 15.9212 96.1348 16.0498 96.3789 16.1279C96.623 16.2028 96.8639 16.2402 97.1016 16.2402C97.3294 16.2402 97.554 16.2061 97.7754 16.1377C98 16.0693 98.2067 15.9766 98.3955 15.8594C98.555 15.765 98.7031 15.6641 98.8398 15.5566C98.9766 15.4492 99.0889 15.3564 99.1768 15.2783H99.3721V17.0166C99.1898 17.098 99.0156 17.1745 98.8496 17.2461C98.6836 17.3177 98.5094 17.3796 98.3271 17.4316C98.0895 17.5 97.8665 17.5521 97.6582 17.5879C97.4499 17.6237 97.1634 17.6416 96.7988 17.6416ZM108.286 17.5H105.986L103.813 14.5898L103.374 15.1221V17.5H101.499V10.2295H103.374V13.5205L105.972 10.2295H108.145L105.303 13.5938L108.286 17.5Z" fill="white"/>
<path d="M8 8.60383V12.6343L19 19.3959V15.3656L8 8.60383Z" fill="white"/>
<path d="M19 19.3959L13.1083 23H8.00986V19.396L19 19.3959Z" fill="white"/>
<path d="M8 8.60383L13.872 5H18.9901V8.60383L8 8.60383Z" fill="white"/>
</svg>
